<svg width="65" height="65" viewBox="0 0 65 65" fill="none" xmlns="http://www.w3.org/2000/svg">
<circle cx="32.5" cy="32.5" r="32.5" fill="white"/>
<rect width="37.1429" height="37.1429" transform="translate(13.3788 13.6084)" fill="white"/>
<path opacity="0.35" d="M31.9503 32.1798C36.2239 32.1798 39.6884 28.7153 39.6884 24.4417C39.6884 20.1681 36.2239 16.7036 31.9503 16.7036C27.6767 16.7036 24.2122 20.1681 24.2122 24.4417C24.2122 28.7153 27.6767 32.1798 31.9503 32.1798Z" fill="#9F2241"/>
<path d="M41.236 36.8226H22.6645C20.1001 36.8226 18.0217 38.9011 18.0217 41.4655C18.0217 44.0299 20.1001 46.1083 22.6645 46.1083H41.236C43.8004 46.1083 45.8788 44.0299 45.8788 41.4655C45.8788 38.9011 43.8004 36.8226 41.236 36.8226Z" fill="#9F2241"/>
</svg>
