<svg width="65" height="65" viewBox="0 0 65 65" fill="none" xmlns="http://www.w3.org/2000/svg">
<circle cx="32.5" cy="32.5" r="32.5" fill="white"/>
<rect width="37.1429" height="37.1429" transform="translate(13.3785 13.6082)" fill="white"/>
<path opacity="0.35" d="M41.2356 46.1081H22.6642C20.0998 46.1081 18.0213 44.0297 18.0213 41.4653V22.8938C18.0213 20.3294 20.0998 18.251 22.6642 18.251H41.2356C43.8 18.251 45.8785 20.3294 45.8785 22.8938V41.4653C45.8785 44.0297 43.8 46.1081 41.2356 46.1081Z" fill="#9F2241"/>
<path d="M45.8785 36.8225V41.4654C45.8785 44.0298 43.8 46.1082 41.2356 46.1082H22.6642C20.0998 46.1082 18.0213 44.0298 18.0213 41.4654V36.8225H24.7411C25.9807 36.8225 27.1894 37.4895 27.6707 38.6317C28.3749 40.2985 30.0231 41.4654 31.9499 41.4654C33.8767 41.4654 35.5249 40.2985 36.2291 38.6317C36.7104 37.4895 37.9175 36.8225 39.1587 36.8225H45.8785Z" fill="#9F2241"/>
</svg>
