<svg width="38" height="38" viewBox="0 0 38 38" fill="none" xmlns="http://www.w3.org/2000/svg">
<path opacity="0.35" d="M28.2356 33.1081H9.66419C7.09978 33.1081 5.02133 31.0297 5.02133 28.4653V9.89383C5.02133 7.32943 7.09978 5.25098 9.66419 5.25098H28.2356C30.8 5.25098 32.8785 7.32943 32.8785 9.89383V28.4653C32.8785 31.0297 30.8 33.1081 28.2356 33.1081Z" fill="#9F2241"/>
<path d="M32.8785 23.8225V28.4654C32.8785 31.0298 30.8 33.1082 28.2356 33.1082H9.66419C7.09978 33.1082 5.02133 31.0298 5.02133 28.4654V23.8225H11.7411C12.9807 23.8225 14.1894 24.4895 14.6707 25.6317C15.3749 27.2985 17.0231 28.4654 18.9499 28.4654C20.8767 28.4654 22.5249 27.2985 23.2291 25.6317C23.7104 24.4895 24.9175 23.8225 26.1587 23.8225H32.8785Z" fill="#9F2241"/>
</svg>
