<?xml version="1.0" encoding="utf-8"?>
<!-- Uploaded to: SVG Repo, www.svgrepo.com, Generator: SVG Repo Mixer Tools -->
<svg width="800px" height="800px" viewBox="0 0 24 24" fill="none" xmlns="http://www.w3.org/2000/svg">
<g id="style=fill">
<g id="key">
<path id="Subtract" fill-rule="evenodd" clip-rule="evenodd" d="M19.7245 4.25634C16.8672 1.40867 12.2422 1.40731 9.39229 4.25664C7.50743 6.13282 6.87285 8.78545 7.46375 11.1886L6.75131 11.901C6.77638 11.92 6.80046 11.9409 6.82333 11.9638L8.80539 13.9459C9.07435 14.2148 9.07435 14.6509 8.80539 14.9198C8.53643 15.1888 8.10036 15.1888 7.8314 14.9198L5.84934 12.9378C5.82647 12.9149 5.80554 12.8908 5.78656 12.8657L4.56916 14.0831L6.5821 16.0961C6.85106 16.365 6.85106 16.8011 6.5821 17.07C6.31314 17.339 5.87707 17.339 5.60811 17.07L3.59516 15.0571L2.7613 15.8909L2.75414 15.8983C2.51883 16.1408 2.35105 16.4612 2.24946 16.7659C2.14833 17.0693 2.08799 17.4316 2.13777 17.7776L2.13823 17.7807L2.39979 19.6821L2.40133 19.6922C2.47514 20.1754 2.7279 20.61 3.04998 20.9335C3.37189 21.2569 3.80877 21.5143 4.30034 21.5826L6.20174 21.8442L6.20497 21.8447C6.54317 21.8934 6.9021 21.8415 7.21104 21.7414C7.51802 21.6419 7.84612 21.4719 8.09426 21.2183L12.8009 16.5199C15.2002 17.1184 17.8514 16.4729 19.7329 14.6006L19.734 14.5994C22.5836 11.7499 22.5836 7.10579 19.7245 4.25634ZM14.6197 6.92451C13.2731 6.92451 12.1815 8.01611 12.1815 9.36267C12.1815 10.7092 13.2731 11.8008 14.6197 11.8008C15.9662 11.8008 17.0578 10.7092 17.0578 9.36267C17.0578 8.01611 15.9662 6.92451 14.6197 6.92451Z" fill="#000000"/>
</g>
</g>
</svg>