<svg width="30" height="21" viewBox="0 0 30 21" fill="none" xmlns="http://www.w3.org/2000/svg">
<path d="M14.8603 0C8.10561 0 2.33712 4.15886 0 10.0294C2.33712 15.9 8.10561 20.0588 14.8603 20.0588C21.615 20.0588 27.3835 15.9 29.7206 10.0294C27.3835 4.15886 21.615 0 14.8603 0ZM14.8603 16.7157C11.1317 16.7157 8.10561 13.7202 8.10561 10.0294C8.10561 6.33859 11.1317 3.34314 14.8603 3.34314C18.5889 3.34314 21.615 6.33859 21.615 10.0294C21.615 13.7202 18.5889 16.7157 14.8603 16.7157ZM14.8603 6.01765C12.6177 6.01765 10.8075 7.80957 10.8075 10.0294C10.8075 12.2493 12.6177 14.0412 14.8603 14.0412C17.1028 14.0412 18.9131 12.2493 18.9131 10.0294C18.9131 7.80957 17.1028 6.01765 14.8603 6.01765Z" fill="#9F2241"/>
</svg>
